<svg id="APIClima" xmlns="http://www.w3.org/2000/svg" viewBox="0 0 1080 1080">
    <defs><style>.cls-1{fill:#f9aa1a;}</style></defs>
    <path id="Nuvem" class="cls-1" d="M1049.33,654.3c-16.62-64-51.76-115.62-104.47-155.09C894.26,461.32,837.17,442,773.7,442.39c-25.65.16-50.59,5.14-75.36,11.18-3.44.84-5.21.75-6.43-3.3-13.6-45.15-38.62-82.91-75.57-112.08C558.14,292.24,492,274.6,419.43,291c-84.17,19-142.76,69.31-172,151.57-12.65,35.54-16.73,72.15-11.49,109.65,4.82,34.52,17.6,66,35.94,95.46,3.78,6.08,3.76,6.1-2.45,9.29C200.25,692.4,159.62,773,172.28,849.54c15.27,92.29,92,157.35,185.51,157.37H567.21q103,0,205.92,0a290.65,290.65,0,0,0,58-5.55c66.48-13.57,121-47,164.07-99.27,36.73-44.56,56-96.59,62.19-153.21C1060.9,717.21,1057.41,685.39,1049.33,654.3ZM1042.46,747c-5.88,54.84-24.81,105.06-60.85,147.83-41.79,49.57-94.39,80.77-158.25,92.62a279.57,279.57,0,0,1-50.67,4.42q-103.22.14-206.44,0-104.24,0-208.45,0c-87-.06-158.18-61.16-170.76-147.15-7.93-54.19,9.07-100.77,45.36-140.88,16.95-18.73,37.89-31.84,60.91-41.71,4.69-2,4.26-3.62,1.72-7.17-19.08-26.63-33.63-55.44-41-87.57-10.86-47.49-5.06-93.47,14.58-137.52,31.44-70.49,87-111.44,161.78-125.84,105.45-20.29,213.14,44.45,245.8,146.34,1.83,5.7,3.41,11.49,4.74,17.32.82,3.58,2,4.73,6,3.86,18.84-4.1,37.5-9.14,56.66-11.71,44.53-6,87.84-1,129.26,16.25,78.14,32.49,132,88.21,158.23,169.3C1041.78,678.42,1046.13,712.71,1042.46,747Z"/>
    <path id="Traco4" class="cls-1" d="M793.16,225.68c-2.77-14.85-10-25.5-24.49-30.65-14.66-5.23-27.66-2-38.53,8.75q-35.82,35.5-71.22,71.46c-7.08,7.16-10.53,16-10.89,27.12,1,14.83,8.16,26.8,22.83,33.1s28.65,3.87,40.25-7.11q36.27-34.34,70.46-70.78C789.66,248.93,795.64,238.92,793.16,225.68Zm-14.6,6c-.31,5.5-3.26,10.48-7.08,14.54-22.71,24.14-46.42,47.29-70,70.57a21.48,21.48,0,0,1-15.71,6.6c-9.42-.11-16.22-4.62-20.31-12.89-4.21-8.52-2.67-16.66,3.43-23.65C674,281,679.68,275.55,685.22,270q27.38-27.37,54.85-54.66c7.83-7.8,15.29-9.55,24.42-5.78A22.18,22.18,0,0,1,778.56,231.71Z"/>
    <path id="Traco3" class="cls-1" d="M505.29,160.71H505c0-17.81.62-35.66-.17-53.43C504,88,487.24,73.09,468,73.08c-21.61,0-37.27,16.16-37.47,39.51-.28,32.15-.17,64.3,0,96.45.05,11.81,3.77,22.43,13.06,30.19,12,10,25.73,11.79,39.76,5.54,14.6-6.51,21.73-18.7,22-34.61C505.47,193.68,505.29,177.19,505.29,160.71ZM490.1,209.92c-.24,16.19-13.42,26.2-28.75,22.16-8.23-2.16-14.5-9.66-15.35-18.92-.44-4.79-.34-9.64-.35-14.46q0-41.94,0-83.88c0-4.34.21-8.65,1.82-12.75a21.53,21.53,0,0,1,23.49-13.7,22.24,22.24,0,0,1,19.11,22.23c.27,16.8.07,33.6.07,50.41h0C490.15,177.31,490.33,193.62,490.1,209.92Z"/>
    <path id="Traco2" class="cls-1" d="M276.54,275.17q-29-29.56-58.33-58.88c-9.64-9.68-19.38-19.1-32.83-23.72A18,18,0,0,0,174.8,192c-15.34,3.62-26.6,12.08-31.4,27.53s-.05,28.42,11.34,39.37c2.88,2.77,5.59,5.71,8.41,8.53,20.38,20.35,40.48,41,61.28,60.9,11.6,11.11,25.85,13.5,40.7,6.91,14.46-6.42,21.45-18.21,22-31.42C287.06,291.2,283.59,282.36,276.54,275.17ZM259,321.54c-8.47,3.74-17,2.72-23.7-3.75C217,300.08,199.08,282,181.07,264c-5.89-5.88-11.62-11.92-17.48-17.82-6.48-6.52-8.49-14.07-5.52-22.83,3.14-9.28,10-15,19.24-16.07,6.85-.82,13.19,3.41,18.1,8.12,23.66,22.7,46.75,46,69.61,69.49,4.45,4.57,7.06,10,7.08,17.8C271.75,310.76,267.48,317.79,259,321.54Z"/>
    <path id="Traco1" class="cls-1" d="M165.05,483c-18.41-2.06-36.92-.39-55.39-.65-17,0-34-.49-50.93.13-22,.8-37,17-36.62,38.57.35,19.81,16.53,35.59,37.29,36,33.94.71,67.89.77,101.83-.13,19.5-.51,34.65-15.89,35.67-36C197.85,502.17,183.83,485.14,165.05,483Zm-5,58.88c-16.64.31-33.3.08-50,.08v.07c-17,0-34,.24-50.95-.1-9.67-.19-16.81-5.14-20.43-14.23-3.38-8.5-1.77-16.44,4.36-23.19,5.61-6.18,13.33-7.34,21.07-7.31,32.14.09,64.28-.75,96.41.46,12.42.47,21.37,10.09,21.15,22.07C181.49,532.33,172.68,541.69,160.05,541.92Z"/>
    <path id="InternoNuvem" class="cls-1" d="M977.19,630.64c-43.25-92.46-141.42-142.57-241.7-124.22-49.33,9-90.6,33.07-124.11,70.32-8.46,9.4-18.3,14.43-31.2,13.46-13.53-1-26.94.51-40.19,3.26-54.75,11.37-95,42.18-121.95,90.89-8.44,15.28-15.13,18.41-32.22,14.89-20.48-4.21-40.93-4.9-61.36.36-63.12,16.24-102.85,77-92.53,141.45A125,125,0,0,0,356.09,946.92c16.82,0,33.66-.18,50.48.12,4.16.08,5.58-1.35,6.78-5.08q29.06-90.48,58.44-180.85c5-15.46,18.52-25.14,34.17-25.15,15.43,0,28.81,9.64,34,24.72q13.18,38.19,26.23,76.44,16.57,48.36,33.13,96.74c1.8,5.29,4.64,9.6,9.93,11.84,11.44,4.85,23.26-3.35,23.3-16.31q.09-32.89,0-65.79,0-14.08,0-28.19,0-10.6,0-21.22t0-21.22q0-25.77-.11-51.54c0-4.21.79-5.63,5.39-5.59,28.16.24,56.32.13,84.48.11a77.19,77.19,0,0,1,10.94.78c34.22,4.9,61.42,33.62,63.56,67.23,2.3,36-20.1,67.62-54.32,77.28-13.45,3.79-27.1,2.64-40.71,2.79-18,.2-32,13.73-32,31.38s13.77,31.48,31.77,31.5c18.5,0,37,0,55.49,0,13.16.05,26.31-.16,39.44-1.15,18.56-1.4,28.42-11.95,28.42-30.43q0-87.23-.08-174.46c0-3.74.7-5.2,4.83-5,9,.35,18,.36,27,0,4.37-.17,5.53,1,5.51,5.43-.18,51.49-.06,103-.17,154.47,0,8.29,2.3,15.13,9.79,19.38,7.71,4.38,14.86,2.59,22-1.91C988.84,853.62,1024.68,732.18,977.19,630.64ZM809.88,918.32c0,6.51-4.12,10.94-10.64,11.82a235.43,235.43,0,0,1-30.84,1.74c-21.8.08-43.61,0-65.41,0-10.7,0-18.14-6.74-18.13-16.35s7.54-16.34,18.11-16.48c13.94-.19,28,1.1,41.67-2.77C777.69,887,799,865.66,809.93,833,809.93,861.41,810,889.86,809.88,918.32Zm76.71-18.52c-2.08,1.43-4.2,3.7-7.2,2.1s-2.29-4.54-2.29-7.13q0-84.21.09-168.44c0-4.34-1-5.57-5.44-5.5-19.15.28-38.32.21-57.47,0-3.5,0-4.46.88-4.43,4.41.17,20.48.08,41,.08,61.46-4.71-14.12-11.62-26.86-21.87-37.65-16.71-17.59-37.25-27.57-61.49-28-35-.61-70-.08-105-.27-4.35,0-4.29,2-4.28,5.12q.07,99.72,0,199.43c0,2.09,1.45,5.64-1.38,6-2.59.37-2.46-3.42-3.16-5.45q-29-84.18-57.78-168.43c-7.9-23.14-26.47-36.79-50.31-36.6-22.13.18-40.73,14.92-48,37.59Q429.43,843.31,402,928c-.63,2-.83,4.08-4,4-17.81-.54-35.65.92-53.43-.87A109.65,109.65,0,0,1,247,840.17c-10.42-60.82,29.35-117.25,90.27-127.91,15.64-2.73,31.18-1.22,46.61,2,21.73,4.57,35.57-1.51,46.3-20.85,15.51-27.94,35.58-51.55,63.9-67.09,27.68-15.18,57.22-22.79,89.12-20.92,13.51.78,25.61-4.27,35-14.22,13-13.69,26.28-26.92,42-37.54,41.15-27.82,86.46-39.55,135.88-34.86,95.38,9,170.52,80.28,184.09,173.48C993,780.06,959.53,849.46,886.59,899.8Z"/>
    <path id="Sol" class="cls-1" d="M637.56,481.53a153,153,0,0,0-12.31-36.29c-32.92-65.65-87.54-96.58-146-99.37-41,0-64.72,5.38-87.42,16.58C326.25,394.79,286.7,467.6,294.93,539c4.69,40.74,21.59,75.4,50.5,104.39,11.39,11.44,37,11.82,48.14-3.77C434,582.9,489.1,551.16,558.86,545.81c10.25-.79,20-2,28.36-9,14.51-12.24,29.4-24,44.17-36C637.7,495.7,639.21,489.13,637.56,481.53Zm-17.34,8.86c-14.41,11.57-28.89,23.06-43,35-6.44,5.45-14,4.73-21.29,5.37-73.24,6.42-131,40-174.28,99a17,17,0,0,1-26.38,2c-24-24.25-38.84-53.15-44.4-87-10.8-65.63,23.4-132,78.68-164,22.61-13.11,47.79-19.89,87.45-19.89,55.28,2.67,105.74,31.49,135.54,92.92,4.59,9.45,7.53,19.53,10.05,29.73C623.37,486.6,622.61,488.47,620.22,490.39Z"/>
    <path id="PontoP" class="cls-1" d="M721.64,771.94c-4.83,0-9.66,0-14.49,0A37.85,37.85,0,0,0,672.05,797a38.57,38.57,0,0,0,11.18,42.16c9.31,7.83,20.1,9.83,31.79,8.92h6.49a38.08,38.08,0,1,0,.13-76.15Zm0,61.13c-2.16,0-4.32,0-7.08,0-4.2-.24-9,.5-13.77-1.08a23.46,23.46,0,0,1-15.76-25.4A23.18,23.18,0,0,1,707.53,787c4.66-.06,9.32,0,14,0,12.66,0,23.38,10.55,23.41,23S734.4,833,721.67,833.07Z"/>
    <path id="TracoA" class="cls-1" d="M533.75,902.42q-28.21-.6-56.45,0c-12.9.3-21.89,10.67-21.41,23.44.45,12.06,10.1,21,22.73,21,8.83,0,17.65,0,26.48,0,9.16,0,18.31,0,27.47,0,12.66-.06,22.29-9.11,22.58-21.15C555.47,912.74,546.7,902.69,533.75,902.42Zm-2.18,29.47c-8.83.05-17.66,0-26.49,0-8.49,0-17,0-25.48,0-5.39,0-8.8-3-8.69-7.41s3.19-6.91,8.61-6.93q26-.07,52,0c5.75,0,8.75,2.68,8.64,7.36C540,929.25,536.9,931.86,531.57,931.89Z"/>
    <path id="PontoA" class="cls-1" d="M505.69,824.93A23.23,23.23,0,0,0,482,848.07a23.43,23.43,0,1,0,46.85.48A23.18,23.18,0,0,0,505.69,824.93Zm-.31,31.83a9,9,0,0,1-8.33-8.4,8.39,8.39,0,0,1,16.78-.33A8.78,8.78,0,0,1,505.38,856.76Z"/>
</svg>