<svg id="C" xmlns="http://www.w3.org/2000/svg" viewBox="0 0 1080 1080">
    <defs><style>.cls-1{fill:#649ad1;}.cls-2{fill:#014482;}.cls-3{fill:#00589b;}.cls-4{fill:#014481;}</style></defs>
    <path id="Superior" class="cls-1" d="M1007.88,271.76c-25.66,14.71-51.18,29.63-77,44.08C893.27,337,856.82,360.32,818.18,379.7c-20.59-28.59-40.48-57.18-67.74-80.78-174.55-151.2-451.62-70-515.56,151.93-25.24,87.57-13.83,171,29.8,250.51-32.17,18.31-64.22,36.78-96.5,54.84-31.07,17.41-60.89,37.09-93.17,52.39-8.34-7-7.69-18.31-12.85-26.84v-482c8.2-24.39,19.35-46.79,42.73-60.31Q301.06,126.09,497.36,13c28.65-16.45,59-16.56,87.57-.17Q781.48,125.6,977.43,239.34C990.76,247,1001.21,257.68,1007.88,271.76Z"/>
    <path id="Inferior" class="cls-2" d="M1008.78,808.53a78,78,0,0,1-32.19,34.25Q780.68,955.93,584.74,1069c-7.81,4.48-16.51,7.38-24.79,11H520c-32.48-15.72-63.12-34.76-94.36-52.76q-158.52-91.38-317-182.94C93.88,835.77,80.92,825.46,75,808.59c32.28-15.3,62.1-35,93.17-52.39,32.28-18.06,64.33-36.53,96.5-54.84,2.2,3.29,4.45,6.53,6.56,9.88C356.7,845.68,525.14,896.66,671,832.59c35.69-15.69,67.4-37.63,95.46-63.89,20.47-19.15,36.61-42.89,51.37-67.09,2.48.87,5.21,1.38,7.47,2.68,41.8,24.16,83.34,48.81,125.42,72.47C969.94,787.58,987.69,801.15,1008.78,808.53Z"/>
    <path id="Cone" class="cls-3" d="M1020.42,766.93a77,77,0,0,1-11.64,41.6c-21.09-7.38-38.84-20.95-58-31.77-42.08-23.66-83.62-48.31-125.42-72.47-2.26-1.3-5-1.81-7.47-2.68Q750.33,662,682.78,622.49c-1.29-.76-3.35-.08-5.09,0h0c-2.73-4.88-7.27-7.52-11.95-10.2-15-8.53-29.68-17.69-44.86-25.91-26.85-14.54-52-32.06-79.91-44.65q61.93-36.07,123.87-72.16c4.45-2.59,10.06-3.92,12.26-9.49,3.32.7,5.94-.9,8.67-2.48q64.21-37.26,128.5-74.5a30.13,30.13,0,0,0,3.94-3.35c38.64-19.38,75.09-42.7,112.75-63.86,25.77-14.45,51.29-29.37,77-44.08,8.7,12.85,12.51,27.1,12.51,42.59Q1020.35,540.64,1020.42,766.93Z"/>
    <path id="Alto" class="cls-1" d="M677.07,460c-2.2,5.57-7.81,6.9-12.26,9.49Q603,505.73,540.94,541.68c-3.92,2.06-7.89,4-11.72,6.2q-63,35.91-125.88,71.82c-55.91-87-2-211.13,101.91-234.54,63.15-14.22,128,10.09,165.45,62.14C673.46,451.13,677.4,454.56,677.07,460Z"/>
    <path id="Baixo" class="cls-4" d="M677.66,622.44a133.46,133.46,0,0,1-17.38,25.68c-50.08,58.2-146.52,70.65-213,21.55-18.17-13.41-33.92-29.24-43.92-50q62.91-35.91,125.88-71.82c3.83-2.17,7.8-4.14,11.72-6.2,27.91,12.59,53.06,30.11,79.91,44.65,15.18,8.22,29.85,17.38,44.86,25.91C670.39,614.92,674.93,617.56,677.66,622.44Z"/>
</svg>