<svg id="Cpp" xmlns="http://www.w3.org/2000/svg" viewBox="0 0 1080 1080">
<defs><style>.cls-1{fill:#004482;}.cls-2{fill:#6599d1;}.cls-3{fill:#00599b;}</style></defs>
    <path id="Baixo" class="cls-1" d="M1008.82,811.32c-7.44,13.24-17.39,24.09-30.66,31.76q-197,113.65-393.87,227.4a66,66,0,0,1-14.88,6.5c-3.86,1.08-7.78,2-11.67,3H525.08c-4.79-1.32-9.72-2.2-14.42-3.86-9.42-3.35-17.64-8.93-26.21-13.89Q295,953,105.7,843.7C92.4,836,82.29,825.41,74.48,812.39a11.94,11.94,0,0,1-.7-1.66c2-.28,3.46-1.61,5.1-2.57q46.5-26.79,93-53.7,45-26,90.06-51.94c.67-.42,1.69-.59,1.86-1.66,1.21.48,1.49,1.69,2,2.62,31.73,52.95,74.87,93.81,129.68,122.15a319,319,0,0,0,231.74,23.45q103.8-29.72,169.6-115.45a356,356,0,0,0,21.5-32.09,18.26,18.26,0,0,1,4.74,2.25l32,18.51q16.35,9.44,32.71,18.88l32,18.52q16.4,9.42,32.74,18.88c11.89,6.84,23.84,13.66,35.68,20.62C995.15,803.23,1002.25,806.84,1008.82,811.32Z"/>
    <path id="Cima" class="cls-2" d="M1008.82,270.92c-4.31,3.43-9.33,5.74-14.06,8.51-21,12.25-42.16,24.37-63.23,36.54q-33.18,19.15-66.42,38.33-21.6,12.51-43.22,24.93c-1,.59-2,1.44-3.27,1.52a15.79,15.79,0,0,1-1-1.52,314.19,314.19,0,0,0-78-89.32q-81.45-63.71-184.85-68.7a307.66,307.66,0,0,0-69.94,4.73,317.23,317.23,0,0,0-91.89,31.65A322,322,0,0,0,245.07,420.2a320,320,0,0,0-16.62,187.67,321.22,321.22,0,0,0,30.15,82.76c1.8,3.38,4.17,6.48,5.19,10.23-.17,1.07-1.19,1.24-1.86,1.66q-45,26-90.06,51.94-46.5,26.84-93,53.7c-1.64,1-3.13,2.29-5.1,2.57-5.35-8.2-8.62-17.19-10.77-26.66a72.52,72.52,0,0,1-1.63-16.17q0-225.93-.06-451.84c0-21.53,7.58-40,20.15-56.89,8.34-11.22,19.73-18.46,31.62-25.25q57.36-32.85,114.46-66,61-35.18,122-70.39l124-71.6c9.32-5.39,18.62-10.88,28.06-16.09C510.37,4.91,520,2.55,529.9,1.45A97.76,97.76,0,0,1,570,5c8,2.42,15,6.79,22.12,10.9L727.94,94.38q68.85,39.74,137.68,79.49,56.64,32.72,113.27,65.4c12.85,7.38,22.18,18.15,29.73,30.63A3,3,0,0,1,1008.82,270.92Z"/>
    <path id="Cone" class="cls-3" d="M1020.94,304.56a78.43,78.43,0,0,0-6.46-23.13c-1.6-3.64-3-7.44-5.66-10.51-4.31,3.43-9.33,5.74-14.06,8.51-21,12.25-42.16,24.37-63.23,36.54q-33.18,19.15-66.42,38.33-21.6,12.51-43.22,24.93c-1,.59-2,1.44-3.27,1.52-8.71,5.08-17.36,10.21-26.07,15.25q-55.2,32-110.46,63.88c-.67.39-1.41.7-2.11,1-7.47,4.88-15.33,9.08-23.05,13.56q-33.34,19.35-66.81,38.57-22.83,13.19-45.68,26.38c-.79.45-1.91.59-2.06,1.8,2.57,2.76,6.12,4,9.25,5.81,10.73,6.36,21.58,12.59,32.43,18.82s22,12.62,33,19q15.68,9,31.33,18.12,14.67,8.46,29.31,16.94c.73.42,1.69.59,1.8,1.69,1.16-1.1,1.94.11,2.73.56q33,19,65.94,38.1,34.11,19.74,68.19,39.5c.76.45,2,.54,2,1.81a18.26,18.26,0,0,1,4.74,2.25l32,18.51q16.35,9.44,32.71,18.88l32,18.52q16.4,9.42,32.74,18.88c11.89,6.84,23.84,13.66,35.68,20.62,6.84,4,13.94,7.64,20.51,12.12a87.34,87.34,0,0,0,12-32.72c.09-.56-.19-1.29.57-1.6V305.38C1021.05,305.24,1021,304.93,1020.94,304.56ZM861.42,556.45c0,1.83-.48,2.36-2.34,2.36-10.17-.08-20.37,0-30.54-.11-2.26,0-2.71.65-2.68,2.79.11,10.09,0,20.18.08,30.29,0,1.89-.36,2.57-2.42,2.51-5.19-.17-10.34-.06-15.53-.06s-10.2-.08-15.27.06c-2,.06-2.54-.48-2.51-2.48.12-9.92-.08-19.84.14-29.76.06-2.87-.87-3.38-3.49-3.35-9.92.17-19.84,0-29.76.11-1.8,0-2.39-.39-2.36-2.31q.12-15.51,0-31.08c0-1.8.42-2.36,2.31-2.34,10.28.09,20.54,0,30.82.09,2,0,2.46-.57,2.43-2.51-.09-10.17,0-20.34-.09-30.55,0-1.88.4-2.53,2.45-2.5,10.26.11,20.55.08,30.8,0,1.95,0,2.51.45,2.48,2.45-.11,10.17,0,20.37-.08,30.54,0,2.12.59,2.6,2.62,2.57,10.17-.11,20.34,0,30.54-.09,1.78,0,2.43.4,2.4,2.31Q861.29,540.92,861.42,556.45Zm133.34,0c0,1.8-.42,2.45-2.31,2.39-5.19-.14-10.37,0-15.56,0s-10.34.08-15.52,0c-1.75,0-2.2.48-2.17,2.2,0,10.25,0,20.54.08,30.8,0,2.17-.67,2.56-2.65,2.56-10.08-.11-20.2-.11-30.29,0-2.14,0-2.82-.48-2.79-2.73.12-10.09,0-20.18.12-30.29,0-2.15-.68-2.57-2.65-2.54-10.12.08-20.21,0-30.3.08-1.94,0-2.7-.31-2.67-2.53.14-10.17.14-20.38,0-30.55,0-2.31.73-2.67,2.82-2.65,10.08.09,20.2,0,30.29.09,1.91,0,2.53-.42,2.51-2.45-.12-10.09,0-20.21-.12-30.3,0-2.42.71-2.84,2.93-2.81q15,.17,30,0c2.11,0,2.79.42,2.76,2.67-.14,10.18,0,20.38-.11,30.55,0,1.86.48,2.34,2.34,2.34,10.17-.09,20.37,0,30.54-.09,1.92,0,2.77.29,2.74,2.54C994.65,535.88,994.67,546.16,994.76,556.42Z"/>
    <path id="Superior" class="cls-2" d="M680,460.92c-7.47,4.88-15.33,9.08-23.05,13.56q-33.34,19.35-66.81,38.57-22.83,13.19-45.68,26.38c-.79.45-1.91.59-2.06,1.8a6.63,6.63,0,0,0-2.93,1q-18.16,10.53-36.37,21-44,25.44-88,50.8c-3.91,2.26-7.6,5-11.94,6.45-1.55-.9-1.95-2.62-2.71-4a156.35,156.35,0,0,1-18.2-60c-3.72-41,6.45-78.19,31-111.1,23.92-32.07,55.74-52.5,94.88-60.9,35.11-7.52,69.09-3.44,101.55,11.92C639.77,410.62,663.16,432.24,680,460.92Z"/>
    <path id="Inferior" class="cls-1" d="M679.5,621.57A147.42,147.42,0,0,1,651,657.47c-23.82,22.17-51.77,36.29-83.89,41.31C520.91,706,479.18,695,442.24,666.37A154.46,154.46,0,0,1,404.76,624c-.67-1.1-1.69-2.06-1.63-3.5,4.34-1.49,8-4.19,11.94-6.45q44.06-25.32,88-50.8,18.17-10.49,36.37-21a6.63,6.63,0,0,1,2.93-1c2.57,2.76,6.12,4,9.25,5.81,10.73,6.36,21.58,12.59,32.43,18.82s22,12.62,33,19q15.68,9,31.33,18.12,14.67,8.46,29.31,16.94C678.43,620.3,679.39,620.47,679.5,621.57Z"/>
</svg>