<svg id="Cs" xmlns="http://www.w3.org/2000/svg" viewBox="0 0 1080 1080">
    <defs><style>.cls-1{fill:#a179dc;}.cls-2{fill:#290269;}.cls-3{fill:#3a0291;}</style></defs>
    <path id="Cima" class="cls-1" d="M1006.51,270.74c-38.66,22.6-77.2,45.4-116.09,67.63-12.26,7-23.42,16.46-37.89,19.2-6.6-2-8-8.46-11.3-13.22-64.12-93.32-152.14-149-264.94-158.28C439.51,174.85,328,226.65,250.5,340c-76.16,111.38-82.95,231.52-28.07,355,3.09,6.94,8.95,13,8,21.47-8.59,11.56-22.32,15.46-34,22.15C156,761.74,116.94,787.25,74.71,807.19c-9.09-4.5-4.9-17.25-13.62-22V299.86c11.16-33.28,33.33-55.6,64-73,121.3-68.62,241.77-138.72,362.3-208.67,35.92-20.84,70.75-21.3,106.86-.34C721,91.45,848.11,164.4,974.93,237.86,988.38,245.65,1000.87,255.11,1006.51,270.74Z"/>
    <path id="Baixo" class="cls-2" d="M1009.46,807c-6.07,16.6-18.38,27.67-33,36.14Q782,955.69,587.4,1067.79c-8.47,4.9-17.85,8.19-26.82,12.21H517.47q-59.5-34-119-68Q257.11,930.64,116,849.08C98.59,839,80.15,829.31,74.71,807.19c42.23-19.94,81.31-45.45,121.72-68.59,11.7-6.69,25.43-10.59,34-22.15,6.91,2.63,8.49,9.66,12.12,14.95C327.58,856,445,912.57,594.84,893.28,708,878.73,792.46,817.1,852,720.5c37.64,21.58,75.08,43.59,113.06,64.54C979.49,793,992.15,804.81,1009.46,807Z"/>
    <path id="Cone" class="cls-3" d="M1020,317.64c-.06-16.48-1.36-33.47-13.51-46.9-38.66,22.6-77.2,45.4-116.09,67.63-12.26,7-23.42,16.46-37.89,19.2-2.09,7.42-9.32,8.81-14.72,12q-55.39,32.33-111.16,64c-10.71,6.06-20.22,14.64-33,16.71-39.84,27-82.89,48.57-124,73.38-8.1,4.89-16.09,10-24.16,15,19.66,17.73,44.44,27.25,66.39,41.29,27.44,17.56,58.14,29.88,82.81,51.86,2.29-.2,5.15-1.39,6.74-.45,50,30,102,56.72,150.63,89.12,37.64,21.58,75.08,43.59,113.06,64.54,14.41,8,27.07,19.77,44.38,22,8.94-12.86,10.62-27.78,10.64-42.65Q1020.45,541,1020,317.64ZM894.73,554.43c.57,7.82,3,10.56,10.53,10.25,9-.37,18,.48,26.91-.22,9.88-.77,13.56,2.35,13.39,12.85-.14,9.94-2.71,13.45-13.11,13.48-12.18,0-28.43-6.11-35.54,3.32-5.83,7.76-2.49,23-1.73,34.89.74,11.27-4.67,12.35-13.87,12.46-9.41.11-13.15-2.75-12.13-12.26.63-5.92-.73-12.13.26-17.93,3.06-17.76-4.28-22.12-21.35-21.21-28.81,1.5-28.3.42-29.26,29.48-.25,7.84,8.07,21.81-11,21.92-10.43.06-16-1.9-14.36-13.65.68-4.67.11-9.55.11-17.25,5.49-17.59-4.45-22.66-22.63-20.22-5.89.79-12-.28-17.92.2-11.79.93-9.61-7.25-10.11-14.25-.6-8,1.5-12.88,10.7-11.69a38.64,38.64,0,0,0,5.38,0c35.68-.4,35.32-.37,34.84-36.42-.15-9.77-2.24-14.47-12.89-13.4-7.7.77-15.58-.37-23.31.28-10.08.83-15.09-1.27-15.06-13.31,0-11.83,4.67-13.53,14.89-13.62,35.12-.25,35.37-.62,35.94-36.33.14-9.12,1.08-14.16,12.35-14.19,11.47,0,13.68,4.16,13.73,14.7.2,39.73.57,39.5,39.77,36.25,7.59-.65,10.64-2.81,10.19-10.6-.54-8.94.51-18-.28-26.9-.91-10.22,2.8-13.4,13-13.37s13.36,3.29,13.11,13.43c-.31,11.78-5.38,26.9,2.18,34.6s22.74,2.41,34.52,2.38c9.52,0,13.74,2,13.68,12.83s-2.89,15.83-14.1,14a13.36,13.36,0,0,0-1.79,0C891.64,515.46,891.93,515.46,894.73,554.43Z"/>
    <path id="Superior" class="cls-1" d="M693.65,450.27c-39.84,27-82.89,48.57-124,73.38-8.1,4.89-16.09,10-24.16,15-5.75,3-11.64,5.81-17.3,9q-68.91,38.82-137.72,77.8c-34.84-58.88-31.18-118.21,2-175.42C455,342.42,608.83,334.13,684.14,433.33,688.05,438.49,693,443.19,693.65,450.27Z"/>
    <path id="Inferior" class="cls-2" d="M694.65,631.83c-34.41,57.15-85.76,86-151.66,85.95-66.19,0-116.62-30.81-151.46-87.08-.88-1.42-.76-3.46-1.1-5.21q68.86-38.93,137.72-77.8c5.66-3.2,11.55-6,17.3-9,19.66,17.73,44.44,27.25,66.39,41.29C639.28,597.53,670,609.85,694.65,631.83Z"/>
    <path id="Ponto" class="cls-3" d="M839.25,565.25c-24.3,2-20.48-12-20-21.58,0-28.75,0-28.75,28.21-28.75,21.89,0,22.14,0,21.8,28.83C869,568.17,873.8,562.42,839.25,565.25Z"/>
</svg>