<svg id="Css" xmlns="http://www.w3.org/2000/svg" viewBox="0 0 1080 1080">
    <defs><style>.cls-1{fill:#0174be;}.cls-2{fill:#0189ca;}.cls-3{fill:#0089ca;}</style></defs>
    <path id="Externo" class="cls-1" d="M1006,4q-106.59-.13-213.21-.26-126-.09-252.12,0V3q-20.05,0-40.13,0-102.08-.09-204.22-.2-79.35-.14-158.69-.31-32.36,0-64.71,0c-4.2,0-4.34.12-4,4.32q1.41,19.71,3,39.39C73.7,69,75.63,91.89,77.5,114.76q2,24.13,3.92,48.3l5.61,68c1.37,16.49,2.64,33,4,49.53,1.81,22.05,3.71,44.13,5.5,66.2,1.79,21.66,3.46,43.37,5.22,65q2.82,34.31,5.65,68.62c1.36,16.29,2.64,32.61,4,48.93,1.82,22,3.72,44.13,5.51,66.21,1.79,21.65,3.46,43.33,5.22,65,1.87,23.27,3.83,46.54,5.73,69.81q2,23.85,3.89,47.74,2.81,34,5.65,68c1.33,16.29,2.61,32.61,3.94,48.93,1.85,22.65,3.78,45.32,5.59,68,.54,6.52-.28,5.73,6.13,7.52q116,32.61,232,65.18,77.18,21.72,154.27,43.45a16,16,0,0,0,9.88,0c6.24-2,12.63-3.74,18.93-5.56l356.15-103.1c5.23-1.53,5.31-1.53,5.77-6.73,1.75-20.26,3.43-40.55,5.16-60.81q2-23.29,4-46.55c1.82-21.05,3.72-42.11,5.54-63.2,1.76-20.26,3.43-40.55,5.19-60.81,1.87-21.68,3.8-43.34,5.67-65,1.31-15.13,2.56-30.22,3.89-45.32,1.85-21.09,3.75-42.14,5.56-63.2,1.79-20.49,3.47-41,5.25-61.44q2.78-32.49,5.68-65,2.55-29.83,5.14-59.62c1.81-20.89,3.72-41.75,5.5-62.61,1.79-20.49,3.47-41,5.22-61.44,1.82-20.86,3.72-41.72,5.54-62.6,1.79-20.47,3.46-41,5.22-61.44q2.8-32.79,5.73-65.59c1.39-15.89,2.73-31.78,4.26-47.68C1013.3,4,1013.44,4,1006,4Zm-73.19,97.68c-.88,7.89-.85,15.83-2.19,23.66-.79,4.69-.79,9.54-1.07,14.22-.4,6.76-1,13.51-1.71,20.18-1.08,11.24-1.36,22.53-3.18,33.71-.88,5.28-.73,10.7-1.13,16-.48,6.73-.91,13.54-1.79,20.15s-.25,13.48-1.79,20.15c-1.13,4.77-1,9.9-1.24,14.78-.52,11.92-2,23.73-3,35.59-.88,11-1.81,22.11-3,33.12-.71,6.67-1.19,13.45-1.76,20.18-.56,6.47-.45,13.05-1.84,19.49-1.11,5-.77,10.28-1.16,15.41-.51,6.7-1.2,13.46-1.79,20.15-.6,6.5-.43,13.06-1.85,19.53-1.1,5-.76,10.27-1.16,15.41-.51,6.69-1.19,13.45-1.79,20.15-.57,6.47-.42,13.05-1.84,19.52-1.11,5-.77,10.27-1.14,15.41-.54,6.7-1.25,13.45-1.81,20.15-.54,6.47-.51,13.05-1.82,19.5-1.08,5.22-.82,10.7-1.22,16-.48,6.73-1.22,13.48-1.76,20.18-.51,6.27-.48,12.66-1.82,18.9-1.1,5.22-.76,10.67-1.19,16-.54,6.69-1.25,13.45-1.79,20.17-.48,6.28-.42,12.66-1.81,18.9-1.11,5-.71,10.28-1.17,15.41-.56,6.5-1,13.09-1.73,19.56-.79,7.09-.51,14.27-1.93,21.31-1,4.85-.82,9.9-1.16,14.81-.45,6.73-1,13.48-1.7,20.15-1.08,11.24-1.37,22.56-3.18,33.72-.88,5.28-.71,10.7-1.14,16-.56,6.9-1.16,13.88-1.81,20.75-.57,6.07-.32,12.26-1.76,18.33-1.19,5-.8,10.27-1.17,15.38-.51,6.73-1.64,13.4-1.67,20.21-.06,6.3-1.33,12.57-1.93,18.87a77.12,77.12,0,0,0-.31,7.75c0,2.52-.94,3.86-3.58,4.62q-46.44,13.2-92.8,26.65c-23.07,6.7-46.11,13.54-69.21,20.23-31.87,9.23-63.77,18.31-95.61,27.56-17.37,5-34.68,10.22-52,15.35a34.81,34.81,0,0,1-3.44,1c-1.87.31-3.12-.4-3.17-2.5,0-1-.06-2-.06-3q0-52.11.06-104.21L435.87,846q-67-18.69-134.12-37.41c-6.61-1.84-5.7-.31-6.36-7.92q-3.36-39.92-6.78-79.85Q286.78,699,285,677.26q-2-23.84-3.89-47.68c-.11-1.39-.17-2.78-.2-4.17-.17-4.51-.17-4.6,4.34-4.62H391.8c4.85,0,4.82.08,5.33,4.93,2.87,26.77,5.91,53.5,8.49,80.29.42,4.14,2.67,4.77,5.62,5.53l81.05,20.72c10,2.58,20.2,4.77,30.08,7.83a34.8,34.8,0,0,0,22.16,0q0-38.57.09-77.11,0-52.26.08-104.57c-2.58-.12-5.16-.34-7.74-.34q-127.25,0-254.51,0c-8.37,0-7,1.25-8.28-7.15-4.94-33.12-9.6-66.3-14.36-99.41a23.28,23.28,0,0,0-.29-2.39c-.68-3,.4-4.6,3.41-5.82,13.08-5.39,26-11.09,39.05-16.68q114.3-49.08,228.59-98.17c1.62-.68,3.46-1,5.11-2.81-2.19-1-4.31-.54-6.3-.54q-133.83,0-267.64,0c-7.47,0-7.33,0-8.32-7.1-3.35-24.49-6.84-49-10.24-73.44-1.39-9.85-2.7-19.73-4.06-29.6-.29-2-.71-3.92-1.05-5.88a2.36,2.36,0,0,1,2.32-1.53c1.79,0,3.61,0,5.4,0h291c8.49,0,7.81.63,7.81-7.72V99.18c.11-5.34.11-5.39,5.28-5.45,8.57,0,17.17,0,25.74,0,6,0,12-.23,18,0,55.43,2.58,110.91.74,166.33,1.08s111,.08,166.47.08c1,0,2,0,3,0,2.16-.06,3.38.85,3.35,3.15C932.73,99.29,932.87,100.51,932.76,101.68Z"/>
    <path id="Meio" class="cls-2" d="M932.76,101.68c-.88,7.89-.85,15.83-2.19,23.66-.79,4.69-.79,9.54-1.07,14.22-.4,6.76-1,13.51-1.71,20.18-1.08,11.24-1.36,22.53-3.18,33.71-.88,5.28-.73,10.7-1.13,16-.48,6.73-.91,13.54-1.79,20.15s-.25,13.48-1.79,20.15c-1.13,4.77-1,9.9-1.24,14.78-.52,11.92-2,23.73-3,35.59-.88,11-1.81,22.11-3,33.12-.71,6.67-1.19,13.45-1.76,20.18-.56,6.47-.45,13.05-1.84,19.49-1.11,5-.77,10.28-1.16,15.41-.51,6.7-1.2,13.46-1.79,20.15-.6,6.5-.43,13.06-1.85,19.53-1.1,5-.76,10.27-1.16,15.41-.51,6.69-1.19,13.45-1.79,20.15-.57,6.47-.42,13.05-1.84,19.52-1.11,5-.77,10.27-1.14,15.41-.54,6.7-1.25,13.45-1.81,20.15-.54,6.47-.51,13.05-1.82,19.5-1.08,5.22-.82,10.7-1.22,16-.48,6.73-1.22,13.48-1.76,20.18-.51,6.27-.48,12.66-1.82,18.9-1.1,5.22-.76,10.67-1.19,16-.54,6.69-1.25,13.45-1.79,20.17-.48,6.28-.42,12.66-1.81,18.9-1.11,5-.71,10.28-1.17,15.41-.56,6.5-1,13.09-1.73,19.56-.79,7.09-.51,14.27-1.93,21.31-1,4.85-.82,9.9-1.16,14.81-.45,6.73-1,13.48-1.7,20.15-1.08,11.24-1.37,22.56-3.18,33.72-.88,5.28-.71,10.7-1.14,16-.56,6.9-1.16,13.88-1.81,20.75-.57,6.07-.32,12.26-1.76,18.33-1.19,5-.8,10.27-1.17,15.38-.51,6.73-1.64,13.4-1.67,20.21-.06,6.3-1.33,12.57-1.93,18.87a77.12,77.12,0,0,0-.31,7.75c0,2.52-.94,3.86-3.58,4.62q-46.44,13.2-92.8,26.65c-23.07,6.7-46.11,13.54-69.21,20.23-31.87,9.23-63.77,18.31-95.61,27.56-17.37,5-34.68,10.22-52,15.35a34.81,34.81,0,0,1-3.44,1c-1.87.31-3.12-.4-3.17-2.5,0-1-.06-2-.06-3q0-52.11.06-104.21l149.89-47.56q41.59-13.24,83.21-26.45c6.87-2.19,5.88-2,6.39-8.15,2.24-27.24,4.62-54.46,6.89-81.67,1.34-15.7,2.56-31.39,3.86-47.08q3-36.1,6.05-72.14c2.27-27,4.62-54,6.89-81,1.37-16.32,2.64-32.61,4-48.9.62-7.55,1.36-15.1,2-22.65.34-3.86.14-4.06-3.72-4.2-1.39-.05-2.78,0-4.17,0H564.26c2.1-2,4-2.41,5.7-3.12q130.65-54.22,261.32-108.49c6.24-2.58,5.47-1.48,5.47-8.12q0-50.91,0-101.82c0-6.76.83-6.44-6.44-6.44H386.52q-70.66,0-141.36,0c-2.35,0-4.79-.34-7.09.54a2.36,2.36,0,0,1,2.32-1.53c1.79,0,3.61,0,5.4,0h291c8.49,0,7.81.63,7.81-7.72V99.18c.11-5.34.11-5.39,5.28-5.45,8.57,0,17.17,0,25.74,0,6,0,12-.23,18,0,55.43,2.58,110.91.74,166.33,1.08s111,.08,166.47.08c1,0,2,0,3,0,2.16-.06,3.38.85,3.35,3.15C932.73,99.29,932.87,100.51,932.76,101.68Z"/>
    <path id="Interno" class="cls-3" d="M686.57,561.56Q681.5,613,676.7,664.46c-1.42,15.07-2.73,30.17-4.09,45.24-.51,5.76-.51,5.76-6.13,6.84Q609.06,727.78,551.6,739c-2.36.45-4.71.76-7.07,1.13q0-38.57.09-77.11,0-52.26.08-104.57c2-.12,4-.31,5.94-.31q64.65,0,129.26,0c1.19,0,2.39,0,3.58,0C686,558,686.85,558.72,686.57,561.56Z"/>
</svg>