<svg id="Design" xmlns="http://www.w3.org/2000/svg" viewBox="0 0 1080 1080">
    <defs><style>.cls-1{fill:#830a48;}</style></defs>
    <path id="Tela" class="cls-1" d="M1028.59,231.81c0-46.24-25.87-80.41-67.75-89.33-9.08-1.94-18.62-1.83-27.39-2.61,3.34-13.08,8.29-25.63,9.59-38.54,4.89-48.23-25.79-89-73.38-99.45A27.56,27.56,0,0,1,864.88,0H837.46a15.28,15.28,0,0,1-3.6,1.83c-26.22,5.34-46.07,19.74-60.75,41.88-19.61,29.56-39.63,58.83-59,88.56-4.16,6.39-8.69,8.52-16.2,8.52q-277.85-.33-555.66-.14c-42.16,0-74.28,21.29-86,58a106.4,106.4,0,0,0-4.67,32.09q-.42,267.3-.14,534.54c0,54.42,36.16,90.42,90.73,90.51q155.51.28,311,0h13.84c-.9,4.59-1.46,8.21-2.31,11.79-6.52,27.67-13.33,55.26-19.49,83-1.63,7.4-4.24,10.69-12.37,10.24-12.63-.73-25.32-.22-37.94-.2-43.65.12-69.58,25.71-70.06,69.19,0,2.08,0,4.19,0,7.93H287.14c-7.74,0-15.47,0-23.21,0-14.62.06-22.92,5.06-25.62,15.36-2.95,11.33,1.35,19.15,14.82,26.83H826.91c13.7-7.82,18.48-16.57,14.48-27.82-3.6-10.21-11.53-14.42-22.13-14.4-21,.09-42,0-63.45,0-.59-8.49-.45-16.23-1.77-23.68-5.4-30.46-28.44-51.24-59.49-53.07-16.48-1-33-.06-49.52-.59-3-.11-7.94-2.59-8.53-4.84-8.24-32.62-15.91-65.39-24.13-99.76h13.39q156,0,312.1,0c45-.08,78.87-25.56,88.32-66.51a113.84,113.84,0,0,0,2.36-25.09Q1028.75,498,1028.59,231.81ZM689.83,244.07q59.4-88.84,118.88-177.7C820.53,48.74,837,39.94,858.1,42.75c20.48,2.76,34.82,14.54,41.15,34.54,5.9,18.64,1,35.1-11.25,50q-59.65,72.36-119,145c-6.44,7.85-12.88,15.67-20.13,24.5-21.35-15.81-41.6-30.86-62.47-46.33C687.61,248.12,688.54,246,689.83,244.07ZM622.08,345.32c13.47-20.11,26.49-39.57,40.27-60.13l59.71,44.27c-15.67,19.06-30.54,37.21-45.93,55.94C657.82,371.81,640.13,358.71,622.08,345.32Zm43.2,130.86c-5.15,26.58-27,42.5-56.7,44.16a263.82,263.82,0,0,1-29.48-.53c-31.16-1.83-61.76-.34-91.66,14.37-6.52-34.12-9.45-66.77.28-99.28,12-40.28,52.93-67.62,94.76-63.57,3.2.31,6.55,2.23,9.25,4.2,21.51,15.74,43.06,31.49,64.18,47.78,3.8,2.92,7.79,8,8.27,12.4C665.61,449.13,667.81,463.22,665.28,476.18Zm17.32,526.7c24.95,0,32.43,8.58,29.48,34.45H368.25c-3.88-25,4.1-34.45,28.8-34.45Q539.81,1002.84,682.6,1002.88ZM486.34,960c8.3-35,16.37-68.93,24.64-103.72h58c8.16,34.25,16.32,68.48,24.73,103.72ZM986.41,766.1c-.2,29.78-17.52,47.5-47.14,47.53q-399.22.17-798.44,0c-29.67,0-47-17.72-47.19-47.48-.17-30.91,0-61.79,0-94.67h29.64c9.84,0,19.69.2,29.53-.08,13.28-.42,22-8.63,22.22-20.45s-8.3-20.87-21.43-21.37c-16.51-.68-33-.23-49.56-.31-3.09,0-6.16-.34-10.4-.59v-12q0-192,0-383.91c0-33.55,16.37-49.95,49.69-49.95h536c-2.7,4.47-4.33,7.43-6.19,10.21-28.49,42.67-57.09,85.22-85.41,128-3.63,5.48-7.32,8-14.24,8.3-75.12,3.12-126.25,52.73-133.06,127.8-3.65,40.21,2.76,79.17,13.08,117.67,4.33,16.17,21.72,22.19,33.92,11,21.91-20,47.76-25.26,76.05-24.5,18.59.48,37.24,1,55.8.31,44.21-1.72,91.86-41.62,90.56-105.67-.16-7,0-14.45-2.33-20.84-4.5-12.48-.73-21.15,7.45-31Q802.9,298.24,889.6,191.42c5.18-6.36,10.44-9.25,18.65-8.78,11.89.68,23.9-.11,35.83.28,23,.76,39.49,16.37,42,39.32a100.09,100.09,0,0,1,.4,10.52q0,192,0,383.91V629.3H971.81q-319,0-638.1.05c-5.57,0-11.33.09-16.73,1.32-9.68,2.23-15.89,11.54-15.22,21.3A20.37,20.37,0,0,0,319.7,671a109.25,109.25,0,0,0,13.67.43q319.07,0,638.1,0h14c.39,3.77.93,6.47.93,9.17C986.46,709.14,986.58,737.61,986.41,766.1Z"/>
    <path id="Ponot" class="cls-1" d="M259.4,651.07a21,21,0,0,1-42-.48,21,21,0,1,1,42,.48Z"/>
</svg>