<svg id="Html" xmlns="http://www.w3.org/2000/svg" viewBox="0 0 1080 1080"><defs><style>.cls-1{fill:#e34f26;}.cls-2{fill:#ef652a;}</style></defs><path id="Interno" class="cls-1" d="M69.47,3l78.8,963,395.28,111.09L927.21,966,1010.53,4.88ZM535.8,873.6,293,805.78,276.8,618.47H395l7.1,91.72,133.7,38.75,7.74-2.09,124-33.43L683.71,559.7H272.28L239.34,199.29H835.49l-11,117.56H369.17l12.27,123.36H813.53L780.59,805.78l-237,65.67Z"/><polygon id="Meio" class="cls-2" points="683.71 559.7 667.57 713.42 543.55 746.85 543.55 559.7 683.71 559.7"/><polygon id="Externo" class="cls-2" points="931.08 95.95 861.98 891.68 543.55 984.05 543.55 871.45 780.59 805.78 813.53 440.21 543.55 440.21 543.55 316.85 824.52 316.85 835.49 199.29 543.55 199.29 543.55 94.66 931.08 95.95"/></svg>