<svg id="Js" xmlns="http://www.w3.org/2000/svg" viewBox="0 0 1080 1080"><defs><style>.cls-1{fill:#efda4f;}</style></defs><path id="Fundo" class="cls-1" d="M1080,2.56c.15-2.46-.94-3.4-3.33-3.25-1.71.11-3.42,0-5.13,0H7.8L.1-.7Q.1,537.65,0,1076c0,3.86.87,4.73,4.72,4.73q537.6-.17,1075.2-.1c0-2.74.06-5.48.06-8.23V7.71C1080,6,1079.88,4.27,1080,2.56ZM587.12,679.74h-.38c0,59,.69,118-.28,176.91-.52,31.89-9.28,61.93-29.24,87.73C537,970.46,509.65,984.73,478,990.76c-39.82,7.56-79.08,5.84-116.75-10.74-34.53-15.19-58.88-41-75.73-74.38-1.6-3.15-.62-4.38,2-5.93Q325.26,876.94,363,854c2.71-1.66,3.8-1.46,5.36,1.37A192.57,192.57,0,0,0,387,883.57c20.37,25.26,54.19,23.81,73.57,15.11,15-6.72,20.59-20.24,23.4-35.29a139.53,139.53,0,0,0,1.95-25.59q0-168.18-.13-336.37c0-5.31,1.41-6.4,6.47-6.36q44.68.39,89.37,0c4.57,0,5.63,1.19,5.62,5.67Q587,590.24,587.12,679.74ZM981.5,915.35c-17.19,35-46.11,56.08-82.14,68.42-23.71,8.12-48.28,11-73.24,11.1-42.89-.39-83.54-9.12-120.14-32.65-26.33-16.93-46.67-39.45-61.67-66.91-1.8-3.3-1.45-4.69,1.89-6.59q37-21.13,73.7-42.75c3.74-2.2,5.42-2.12,7.88,1.8,11.23,17.91,24.71,33.91,43.64,44,28.66,15.33,58.72,17.6,89.29,6.59,15.7-5.67,27.6-16.18,31.42-33.26,3.69-16.4.22-31.3-11.79-43.65-7.88-8.1-17.5-13.67-27.45-18.71-23.21-11.76-47.52-21-71.17-31.8a307.57,307.57,0,0,1-45.27-25.1C692.66,716.17,671.8,674.74,672.73,622c1.11-62.4,39.85-111.18,101.2-126.67a198.79,198.79,0,0,1,100.54.72c40.34,10.55,68.44,36.57,89.13,71.74,1.41,2.4.86,3.43-1.28,4.8q-36.55,23.37-73,47c-2.58,1.66-3.64,1.07-5-1.39-4.77-8.36-10.22-16.28-17.34-22.83-19.34-17.82-42.07-22-66.31-13.64-35,12-33.8,54.45-16.28,72,7.38,7.37,16,12.83,25.16,17.55,21,10.84,43.16,19.06,64.6,28.9,26.65,12.24,52.56,25.69,74.89,45.15,29,25.28,43.31,57.55,45.49,95.58C996,866.63,993.05,891.77,981.5,915.35Z"/></svg>