<svg id="loginaluno" xmlns="http://www.w3.org/2000/svg" viewBox="0 0 1080 1080">
    <defs><style>.cls-1{fill:#ffba08;}.cls-2{fill:#9e4770;}.cls-3{fill:#d9bbf9;}</style></defs>
    <path id="Baixo" class="cls-1" d="M1015,230V875.72s-352.6-63-462.3,98.64a225.63,225.63,0,0,0-19.19-12.28l-.62-.36-.65-.37c-1.34-.77-2.74-1.58-4.21-2.4h0c-56.32-31.68-209-99.51-457.25-79.63V230H474.89C523.38,280.15,540,328.73,540,328.73c23.64-40.23,49-72.66,74.88-98.77Z"/>
    <path id="Meio" class="cls-2" d="M656.93,193a395.41,395.41,0,0,0-42,37C589,256.07,563.64,288.5,540,328.73c0,0-16.62-48.58-65.11-98.77a333.12,333.12,0,0,0-42.23-37H141V796.63c228.3,23,361.61,138.4,387,162.31h0c3,2.81,4.46,4.35,4.46,4.35.33-.41.67-.82,1-1.22C635,840.34,939,803,939,803V193Z"/>
    <path id="Cima" class="cls-3" d="M881,126V727C593.83,762.07,538,942.92,532.89,961.72c-.28,1-.4,1.58-.4,1.58-.08-.65-.16-1.3-.25-1.95C510.52,800,204,729,204,729V121c103.44,2.32,177.16,34,228.66,72a333.12,333.12,0,0,1,42.23,37C523.38,280.15,540,328.73,540,328.73c23.64-40.23,49-72.66,74.88-98.77a395.41,395.41,0,0,1,42-37C770.91,106.53,881,126,881,126Z"/>
    <path id="Traço" d="M1011.13,210.21c-14-.06-28,0-41.94,0-1.8,0-3.58-.17-5.7-.29,0-5.36,0-10.12,0-14.88,0-13-7.6-20.56-20.7-20.6-14.84,0-29.66,0-44.51,0-1.8,0-3.58-.18-5.85-.31v-6.62q0-22.27,0-44.51c0-14.57-7.85-21.92-22.52-21.13-1.86.1-3.74.21-5.6.43a502.27,502.27,0,0,0-158.75,44.88C637.33,179.39,581.39,225.76,542,290.87a23.14,23.14,0,0,1-1.7,2.27c-.59-.31-1-.39-1.16-.62-.76-1.14-1.47-2.3-2.19-3.45-24.6-40.26-56.28-74-94.35-101.73-43.92-32.05-92.66-54-144.73-68.85-28.9-8.26-58.29-14.31-88.31-16.64-13.94-1.08-21.91,6.75-21.93,20.64,0,15.17,0,30.35,0,45.52,0,2-.22,4-.36,6.39h-6.05c-15,0-30-.08-45,0-11.77.08-19.51,7.91-19.61,19.62,0,5.09,0,10.2,0,15.82-1.72.16-2.72.31-3.72.31-14.49,0-29,0-43.49,0-13,0-20.5,7.6-20.5,20.74V874.65c0,13.39,8.3,21.15,21.72,20.52,15.82-.76,31.66-1.65,47.5-2,72.63-1.49,144.87,2.7,216.52,15.22,50.54,8.83,100.06,21.44,147.1,42.25,16.13,7.15,31.45,16.16,46.9,24.74,7.14,4,17.62,4,24.16-1a35.13,35.13,0,0,1,5.35-3.9c13.39-6.73,26.59-14,40.34-19.89,67.38-29.06,138.42-43.28,210.93-51.11a1178.79,1178.79,0,0,1,200.76-4.31c12.67.8,21.11-7.3,21.11-20.07q0-322.33,0-644.72C1031.19,218,1023.55,210.25,1011.13,210.21ZM313.63,866.62q-37.45-5.29-75.24-8.21c-25.14-1.92-50.38-2.82-75.6-3.38s-50.35-.12-75.88-.12V248.46h29.6V799.57c0,1.55,0,3.07,0,4.62.16,11.16,7.78,18.94,18.84,19.41,84.73,3.58,166.66,20.32,245.36,52.2a31.43,31.43,0,0,1,6.78,3.51C362.87,875,338.36,870.12,313.63,866.62ZM464.43,875c-69-39.93-143.5-64.46-221.77-77.8C215,792.46,186.89,790,159,786.8c-3.45-.39-5-1.21-4.64-4.79a46,46,0,0,0,0-5.12V212.56h33.23V731c0,15.76,5.79,21.83,21.44,23.12,47,3.92,92.72,13.53,136.19,32.47a345.53,345.53,0,0,1,120.57,87,3.88,3.88,0,0,1,1.11,2.57C466.07,875.74,465.23,875.41,464.43,875Zm55,4.17c-6.87-8.54-12.55-16-18.6-23.11-54-63.52-122.21-104.35-202.46-125.2-22-5.72-44.8-8.72-67.32-12.46-4.6-.76-5.8-2.11-5.78-6.58q.18-96.45.08-192.92V141.48c10.44,2,20.13,3.53,29.72,5.58,53.48,11.46,103.93,30.59,150,60.39,49.11,31.73,87.12,73.43,112.77,126.15a16,16,0,0,1,1.49,6.83q.09,266.33.06,532.67Zm45.41-5.32c-1.06,1.41-2.17,2.8-3.27,4.21l-1.08-.4v-4.85q0-266.07.08-532.14a19.19,19.19,0,0,1,2.1-8.21c28.41-58,71.69-101.9,127.2-134.23,50.15-29.2,104.33-46.78,161.42-56a23.72,23.72,0,0,1,3,0c.1,1.9.28,3.72.28,5.54q0,282.18.09,564.37c0,4.35-1.15,5.72-5.58,6.21-72.43,8.1-139.54,30.9-199.48,73.13A377.42,377.42,0,0,0,564.88,873.81Zm48.21,2c-.37-.33-.72-.66-1.09-1,11.78-11.26,23.14-23,35.46-33.64C700.21,795.73,762,770.1,830.29,759.13c14-2.25,28.05-3.74,42.13-5,13.29-1.21,20-8,20-21.52q0-173.45,0-346.93V212.35c10.61,0,20.48-.08,30.33.12,1,0,2.31,1.52,2.76,2.64s.16,2.68.16,4q0,280.42.1,560.83c0,4.84-.92,6.6-6.27,7-91.27,6.76-179.23,26.9-262.32,66.15C642.23,860.16,627.78,868.22,613.09,875.84Zm380-19.93c-101.2-4.13-201.54,2.15-300.92,23,4-1.67,8-3.41,12.07-5C781.48,843,861.82,827,944.81,823.6c10.81-.45,18.45-8.27,18.66-19.1,0-2.89,0-5.79,0-8.69V248.46h29.57Z"/>]
</svg>