<svg id="React" xmlns="http://www.w3.org/2000/svg" viewBox="0 0 1080 1080">
    <defs><style>.cls-1{fill:#4395a8;}</style></defs>
    <path id="Traco" class="cls-1" d="M339.09,105.8l16,0c29.53,1.64,55.83,13.19,81.12,27.2,35.75,19.8,67.45,45.11,96.8,73.42,7.12,6.86,7,6.79,14.4-.3,34.88-33.25,72.46-62.77,116.4-83.35,14.81-6.93,30.12-12.92,46.35-15,28.15-3.67,55.91-3.54,80.46,14.17,21,15.16,33.79,36,41.16,60.33,9.41,31.17,10.62,63.09,8.42,95.35-2.18,31.78-7.76,63-15.34,93.82-1,4.1,0,5.64,3.88,6.74a560,560,0,0,1,81.85,30.09c27.48,12.74,53.29,28.09,75.74,48.62,19.34,17.68,33.92,38.36,39.64,64.43,5.54,25.24.11,48.46-13,70.28-15.27,25.36-37.52,43.35-62.09,58.89-37.33,23.61-78.26,38.82-120.29,51.45-6.9,2.07-6.82,2.11-5.12,9.17,7.3,30.25,12.68,60.78,14.76,91.9,2.14,32.1,1.24,63.9-8.27,94.87-9.2,29.92-25.61,54.34-54.77,68.45-7.69,3.73-16,5.55-24.15,7.76-5.66,0-11.35-.42-17,0-22.87,1.63-44.12-4.42-64.88-13.12-31.29-13.13-59-32-85.48-52.92a500.37,500.37,0,0,1-41.86-37c-3.07-3-5.07-2.34-7.87.36-29.43,28.41-61,54.12-96.58,74.56-22.78,13.09-46.82,23.06-72.81,27.81a31.22,31.22,0,0,1-5.48.26q-17.49.09-35,.12c-10.71-3.1-21.37-6.24-31.09-12-20.42-12-33.44-30.14-42.35-51.55-7.41-17.82-10.91-36.57-12.55-55.72-3.9-45.59,2.54-90.23,12.39-134.56.83-3.73,1.51-7.52,2.69-11.14,1.29-4,0-5.72-3.87-6.8q-24-6.72-47.36-15.63c-34-13-66.8-28.38-95.77-50.87-19.94-15.48-37.52-33.1-47.7-56.72-15.42-35.74-9.52-68.95,13-99.78,17.24-23.6,40.28-40.47,65.18-55,34.56-20.19,71.72-34.16,110-45.36,7.69-2.25,7.61-2.13,5.75-10.09-7-29.64-12.48-59.49-14.47-90-2-30.21-1.52-60.21,6.26-89.67,7.43-28.18,21.1-52.43,45.72-69.3C306.09,110.16,322.2,106.59,339.09,105.8Zm201.3,278c-26.48-.52-52.91,1-79.34,2.19-6.57.31-11.11,2.57-15,8.46A1284.6,1284.6,0,0,0,365.23,535c-1.94,3.94-1.6,7.07.23,10.74,10,20.11,20.4,40,31.4,59.64Q421.17,648.77,449,690c1.47,2.17,3.12,3.68,5.95,3.93,19.06,1.7,38.19,2.29,57.29,2.77,36.45.91,72.88.15,109.26-2.56,5-.37,8.17-1.86,11-6.05a1253.61,1253.61,0,0,0,82.12-142.14c2-4.15,1.94-7.5-.15-11.64-10.51-20.8-21.13-41.53-32.62-61.81-15.77-27.81-32.49-55-50.39-81.53-1.43-2.1-2.86-4-5.8-4.14-7.46-.48-14.9-1.44-22.37-1.73C582.33,384.25,561.37,383.21,540.39,383.8ZM281.59,254.2c.87,7.23.51,16.23,1.26,25.19,2.31,27.4,7.34,54.29,13.5,81,1.09,4.75,3.12,5.61,7.73,4.52,17-4,34.13-7.17,51.34-10,22.47-3.72,45.1-6.2,67.72-8.67,4.29-.47,6.52-2.92,8.65-5.91,23.06-32.25,47.63-63.29,74.63-92.35,3-3.27,3.07-5.44-.32-8.61-18.16-16.93-36.89-33.15-57-47.71-22.08-16-45.43-29.69-71.45-38.26-14.68-4.83-29.8-7.37-45.2-4.22-20.82,4.27-32.68,18.6-40.32,37.28C283.47,207.65,282,230,281.59,254.2Zm-.34,577.64c.29,4.31.57,8.62.88,12.93,1.14,15.79,3.33,31.35,8.86,46.33,12,32.39,35.41,45.83,69.1,40.14,18.2-3.07,34.69-10.22,50.77-18.69,36-18.95,66.67-44.92,96.22-72.42,2.51-2.34,2.44-4.17.13-6.69a973.44,973.44,0,0,1-76.09-94.34,11.84,11.84,0,0,0-9.51-5.28c-10.43-.92-20.86-1.89-31.23-3.28-29.47-3.93-58.83-8.49-87.8-15.33-3.05-.71-4.82-.3-5.74,3.34C287.51,755.76,281.87,793.45,281.25,831.84Zm33.8-291.61c-.54-1.54-.93-3-1.54-4.35A1018.64,1018.64,0,0,1,269.4,422c-1-3.16-2.15-4.21-5.66-3.17-36.6,10.91-72.25,24.11-105.35,43.48-18.94,11.09-36.42,24-49.86,41.67-14,18.34-18.53,38.17-8,59.73,7.34,15,18.73,26.66,31.78,36.69,39.34,30.26,84.93,47.23,131.82,61.34,2.68.81,4.21,0,5.14-2.92a1024,1024,0,0,1,44.43-114.86C314.29,542.73,314.63,541.44,315.05,540.23ZM798.36,245a176.31,176.31,0,0,0-6.4-46.88c-4.07-14.45-10.22-27.9-21.87-37.94-15.24-13.13-33.26-13.8-51.9-10.66-17.45,2.95-33.33,10.16-48.85,18.32-35.1,18.45-65.27,43.49-94,70.47-5.72,5.37-5.52,5.34-.21,11.28,8.42,9.42,16.77,18.93,25,28.56,17.37,20.43,33.55,41.78,49.12,63.6a10,10,0,0,0,7.78,4.52c14.71,1.5,29.43,3.06,44.06,5.12,25.83,3.65,51.56,7.92,77,13.85,3,.69,4.33-.09,5-2.95C792,326.31,798.16,290,798.36,245Zm-.29,571.17c-.13-6.72-1-16-1.92-25.26a531.82,531.82,0,0,0-12.85-72.08c-.93-3.83-2.65-4.29-6-3.52-39.42,9.08-79.37,14.77-119.61,18.61a10.38,10.38,0,0,0-8.29,4.7c-3.83,5.64-8,11.06-12.06,16.54a934.33,934.33,0,0,1-64.39,78.24c-2.26,2.45-2.54,4.48.08,6.74,2.14,1.85,4.22,3.76,6.28,5.7a492.12,492.12,0,0,0,59.25,48.13c23.51,16,48.09,29.81,76.14,36.31,14.22,3.29,28.4,3.75,42.17-1.82C773.94,921.5,783,907.39,789,891,797.6,867.6,798.87,843.27,798.07,816.12Zm187-277.49c-.13-3.14,0-6.28-.82-9.41C979.53,512,969,498.68,956.12,487c-15.32-13.8-32.83-24.43-51-34-27.38-14.34-56.42-24.46-86-33.32-7.67-2.3-6.64-3.16-9.32,5-11.62,35.43-24.52,70.38-40.45,104.14a25,25,0,0,0-.14,22.19c16.26,34.71,29.65,70.53,41.26,107,1.12,3.54,2.79,4.38,6.21,3.35,28.56-8.59,56.68-18.35,83.4-31.72,24.07-12,47-25.79,65.4-46C977.18,571,985.06,556.5,985.09,538.63ZM684,687.74a35.2,35.2,0,0,0,4.2,0c26-3.66,51.83-7.85,77.5-13.29,3.83-.81,4.71-2.36,3.41-6.23-8.18-24.25-16.63-48.39-26.73-71.93-.63-1.47-.66-3.84-2.36-4s-2.11,2.24-2.85,3.62c-12,22.63-24.54,45-37.89,66.81Zm.12-294.58c20.07,31.41,38.2,63.34,55.94,96.62,11.2-26.54,20.79-52.22,29.15-78.37,1.38-4.31-.87-4.79-3.88-5.43-20.47-4.39-41.07-8.12-61.8-11C697.31,394.08,691.21,392.25,684.07,393.16ZM395.39,687.77l-55.54-96.14c-.88,1.81-1.67,3.23-2.29,4.73-9.5,23.26-18.37,46.74-26,70.68-1.95,6.09-2,6.23,4.27,7.56,18.53,3.94,37.15,7.38,55.88,10.17C379.53,685.93,387.32,687.62,395.39,687.77ZM339.82,489.43a25.56,25.56,0,0,0,1.59-2.09c16.31-30.7,33.5-60.88,52.06-90.28.66-1.06,2.12-2.32,1.22-3.52-1.12-1.49-3.12-.7-4.66-.49-25.33,3.42-50.52,7.69-75.53,13-3.75.79-4.92,2.38-3.5,6.28,6,16.38,11.59,32.9,17.61,49.26C332,470.69,335.86,479.64,339.82,489.43ZM484.56,738.52c0,.52-.07.72,0,.83,16.24,22.38,34.62,43,52.51,64,2.13,2.5,4.36,2,6.31-.38,1.71-2,3.28-4.2,5.05-6.18q23.09-25.92,44.18-53.5c.85-1.12,2.65-2.33,1.94-3.75-.86-1.69-3-.82-4.54-.78-12.48.26-24.95.71-37.43.92C530,740.12,507.38,738.86,484.56,738.52Zm0-397.69c36.71.54,72-.71,107.29,1,1.07,0,2.48.55,3-1,.39-1.09-.53-1.81-1.13-2.59-15.87-20.57-32.54-40.45-49.68-60-3.26-3.71-5.2-3.23-8.1.24-11.63,13.91-23.56,27.58-35.19,41.49C495.33,326.54,490.35,333.34,484.53,340.83Z"/>
    <path id="Ponto" class="cls-1" d="M453.07,539.93c0-49,38.29-87,87.7-87,47.62,0,87.05,39,86.4,88.41-.63,47.54-39.14,85.58-87.8,85.56C491.42,626.86,453.07,588.22,453.07,539.93Z"/>
</svg>