<svg id="Responsivo" xmlns="http://www.w3.org/2000/svg" viewBox="0 0 1080 1080">
    <defs><style>.cls-1{fill:#001f54;}</style></defs>
    <path id="Tablet" class="cls-1" d="M331.21,386c-95.24,0-190.48.4-285.72-.38-21.31-.17-36.76,5.8-45.49,25.78V928.12C8.46,947.66,23.46,954,44.43,953.86c95.58-.68,191.16-.27,286.74-.3,28.44,0,41-12.52,41-41.26q.06-242.5,0-485C372.13,398.52,359.61,386,331.21,386ZM151.88,421c2.59-.17,5.15-.27,7.74-.34,6.27-.17,12.58-.07,18.89,0,1.36,0,2.69,0,4.06,0s2.69,0,4,0c3.07,0,6.14-.07,9.21-.1,8.15-.11,16.3-.21,24.41.37,3.24.24,6.28,4,9.42,6.17-3.11,2.22-6.14,6.31-9.24,6.38-22.78.55-45.6.55-68.34,0-3.14-.07-6.21-4.06-9.28-6.21C145.81,425.12,148.74,421.23,151.88,421Zm33.45,508.42a17.48,17.48,0,1,1,17.6-17.18A17.32,17.32,0,0,1,185.33,929.41Zm157.51-59.29c0,14.22-1.64,15.78-15.62,15.78Q186,886,44.67,885.9c-13.88,0-15.21-1.29-15.21-15q0-100.71,0-201.42,0-99.13,0-198.26c0-15.78,1.13-17,16.47-17q140.25-.06,280.47,0c14.7,0,16.44,1.7,16.47,16.2Q342.87,670.27,342.84,870.12Z"/>
    <path id="Pc" class="cls-1" d="M1080,187.55c.14-35.74-23.53-61.52-61.35-61.42-274.77.75-549.58.38-824.39.41-39.52,0-60.28,20.77-60.35,60.49q-.15,62.72,0,125.46c.07,28.74-2.29,25.71,26.29,25.88,13.54.07,14-.72,14-14.46q-.15-68.53-.2-137.08c0-17,3.37-20.19,20.49-20.19h824.42c17.5,0,20.6,3.17,20.6,21.11v508.9H450.32c-22.51,0-30.42,7.78-30.62,30.35q-.26,29.57,0,59.06c.21,22.37,8.29,30.11,30.86,30.11q283.58,0,567.18,0c41,0,61.82-20.7,61.82-61.34C1079.59,565.74,1079.15,376.63,1080,187.55ZM606.77,770a23.51,23.51,0,0,1-.58-47,23.51,23.51,0,1,1,.58,47Z"/>
    <path id="Pe" class="cls-1" d="M836.77,935.11c-.1,13.16-1.43,14.63-14.46,14.63q-96.93,0-193.86,0t-193.82,0c-14.15,0-15-1-15.1-14.87,0-6.31,0-12.65,0-19,.06-13.09,1.53-14.7,14.39-14.73,24.92-.07,49.85,0,74.78,0,13.53,0,14.42-1,14.52-14.26.17-32.46-3.78-29.77,30.08-29.77q66.9,0,133.8,0c15,0,16.44,1.4,16.54,16,.21,31.75-3.37,27.93,28.17,28.07,30.21.13,60.39,0,90.6,0,12.24,0,14.19,2,14.32,13.91C836.84,921.74,836.8,928.43,836.77,935.11Z"/>
</svg>