<?xml version="1.0" encoding="utf-8"?>
<!-- Generator: Adobe Illustrator 25.0.0, SVG Export Plug-In . SVG Version: 6.00 Build 0)  -->
<svg version="1.1" id="Responsivo" xmlns="http://www.w3.org/2000/svg" xmlns:xlink="http://www.w3.org/1999/xlink" x="0px" y="0px"
	 viewBox="0 0 1080 1080" style="enable-background:new 0 0 1080 1080;" xml:space="preserve">
<style type="text/css">
	.st0{fill:#001F54;}
</style>
<path id="Tablet" class="st0" d="M331.2,386c-95.2,0-190.5,0.4-285.7-0.4c-21.3-0.2-36.8,5.8-45.5,25.8v516.7
	c8.5,19.5,23.5,25.9,44.4,25.7c95.6-0.7,191.2-0.3,286.7-0.3c28.4,0,41-12.5,41-41.3c0-161.7,0-323.3,0-485
	C372.1,398.5,359.6,386,331.2,386z M151.9,421c2.6-0.2,5.1-0.3,7.7-0.3c6.3-0.2,12.6-0.1,18.9,0c1.4,0,2.7,0,4.1,0s2.7,0,4,0
	c3.1,0,6.1-0.1,9.2-0.1c8.1-0.1,16.3-0.2,24.4,0.4c3.2,0.2,6.3,4,9.4,6.2c-3.1,2.2-6.1,6.3-9.2,6.4c-22.8,0.5-45.6,0.5-68.3,0
	c-3.1-0.1-6.2-4.1-9.3-6.2C145.8,425.1,148.7,421.2,151.9,421z M185.3,929.4c-9.7-0.1-17.4-7.9-17.4-17.6
	c0.1-9.7,7.9-17.4,17.6-17.4c9.7,0.1,17.4,7.9,17.4,17.6c0,0.1,0,0.1,0,0.2c-0.1,9.6-7.9,17.3-17.5,17.2
	C185.4,929.4,185.4,929.4,185.3,929.4L185.3,929.4z M342.8,870.1c0,14.2-1.6,15.8-15.6,15.8c-94.1,0.1-188.3,0.1-282.5,0
	c-13.9,0-15.2-1.3-15.2-15c0-67.1,0-134.3,0-201.4c0-66.1,0-132.2,0-198.3c0-15.8,1.1-17,16.5-17c93.5,0,187,0,280.5,0
	c14.7,0,16.4,1.7,16.5,16.2C342.9,603.7,342.9,736.9,342.8,870.1L342.8,870.1z"/>
<path id="Pc" class="st0" d="M1080,187.6c0.1-35.7-23.5-61.5-61.3-61.4c-274.8,0.8-549.6,0.4-824.4,0.4c-39.5,0-60.3,20.8-60.4,60.5
	c-0.1,41.8-0.1,83.6,0,125.5c0.1,28.7-2.3,25.7,26.3,25.9c13.5,0.1,14-0.7,14-14.5c-0.1-45.7-0.2-91.4-0.2-137.1
	c0-17,3.4-20.2,20.5-20.2h824.4c17.5,0,20.6,3.2,20.6,21.1v508.9H450.3c-22.5,0-30.4,7.8-30.6,30.3c-0.2,19.7-0.2,39.4,0,59.1
	c0.2,22.4,8.3,30.1,30.9,30.1c189.1,0,378.1,0,567.2,0c41,0,61.8-20.7,61.8-61.3C1079.6,565.7,1079.2,376.6,1080,187.6z M606.8,770
	c-13-0.2-23.4-10.9-23.2-23.8c0.2-12.5,10.1-22.7,22.6-23.2c13-0.5,23.9,9.6,24.4,22.6c0.5,13-9.6,23.9-22.6,24.4
	C607.6,770,607.2,770,606.8,770z"/>
<path id="Pe" class="st0" d="M836.8,935.1c-0.1,13.2-1.4,14.6-14.5,14.6c-64.6,0-129.2,0-193.9,0s-129.2,0-193.8,0
	c-14.1,0-15-1-15.1-14.9c0-6.3,0-12.7,0-19c0.1-13.1,1.5-14.7,14.4-14.7c24.9-0.1,49.9,0,74.8,0c13.5,0,14.4-1,14.5-14.3
	c0.2-32.5-3.8-29.8,30.1-29.8c44.6,0,89.2,0,133.8,0c15,0,16.4,1.4,16.5,16c0.2,31.8-3.4,27.9,28.2,28.1c30.2,0.1,60.4,0,90.6,0
	c12.2,0,14.2,2,14.3,13.9C836.8,921.7,836.8,928.4,836.8,935.1z"/>
</svg>
