<svg id="SQL" xmlns="http://www.w3.org/2000/svg" viewBox="0 0 1080 1080">
    <defs><style>.cls-1{fill:#db7533;}</style></defs>
    <path id="Traco" class="cls-1" d="M560.93,71.63c4.31.94,8.6,2.57,12.94,2.7,78.91,2.41,156.06,14.22,229.63,44,32.56,13.18,63,30.08,87,56.64,18,19.87,28.37,42.38,28.32,69.8-.22,109.32.07,218.64.13,328,0,83.13-1.51,166.3.62,249.37,1.31,51-21.57,85.9-61.58,112.69-44.2,29.59-94,45.23-145.39,56.33-47.16,10.17-94.9,14.68-143.13,16.56-86.68,3.36-171.85-5.08-254.87-30.36-44.9-13.67-87.51-32.58-121.52-66.62-21.41-21.42-32.58-47.24-32.6-77.44q-.18-293.81.08-587.6c.06-40.72,22.32-69.88,53.61-92.92C254,123.46,299.58,107.24,347,95.48A715.41,715.41,0,0,1,504.34,74.41c6.71-.14,13.4-1.82,20.09-2.78ZM539.18,138.1c-21.61,1-43.25,1.67-64.83,3.15-55.05,3.77-109.08,13-161,32.31-27.48,10.21-54.18,22.29-74.82,44.18-16.05,17-16.49,33.89.81,49.52,12.24,11.06,26,21.29,40.72,28.62,73.48,36.63,153.12,46.23,233.73,49.69,26.48,1.13,53.11-.89,79.65-1.9,57.5-2.19,113.62-12.22,168-31,26.25-9.05,51.17-20.85,72.94-38.69,24.43-20,25.41-41.17,2.21-61.86-1.42-1.26-2.94-2.4-4.42-3.59-23.43-18.86-50.6-30.5-78.83-39.68C683.82,146.24,612.12,138.15,539.18,138.1ZM227,545.16v13.53c0,28.47.39,56.95-.34,85.4-.3,12,3.44,21.85,12,29.4,9.64,8.47,19.47,17.24,30.58,23.44,67.54,37.66,142,49.61,217.62,53.91,42.29,2.41,84.94.11,127.34-1.88,45.92-2.16,90.91-11.05,134.67-25.15,31.85-10.27,62.84-22.63,88.27-45.5,11.24-10.11,17.47-21.93,16.94-37.87-.9-26.92-.24-53.9-.24-80.85V545c-98.58,55.41-204.57,69.43-312.55,69.56C432.88,614.67,326.44,600.84,227,545.16ZM226.91,342c0,35.28.33,67.86-.19,100.43-.17,10.76,2.88,20.18,10.79,26.3,15.77,12.2,31.47,25.46,49.28,33.9,69.69,33,144.63,43.95,220.81,45.72,40.85.94,81.86-1.63,122.69-4.39,51.26-3.47,101.34-14.27,148.52-34.7,21.26-9.2,40.82-22.87,59.94-36.25,11.16-7.81,15.82-20.24,15.37-34.9-.87-27.67-.23-55.39-.29-83.09,0-3.89-.48-7.77-.81-12.76-98.56,53.63-203.85,68.18-312.25,68.27C432,410.6,326.36,396.1,226.91,342Zm0,406.77c0,29.86.44,57.85-.2,85.82-.27,12,4,21.23,11.84,29.59,16,17,35.86,28,56.92,36.91,66.89,28.46,137.63,38.58,209.5,41.52,48.53,2,97.08.39,145.35-6.48,43.28-6.15,85.76-15.23,126.38-31.72,23.3-9.46,45.71-20.54,63.85-38.55,9-8.92,13.94-19.27,13.5-32.5-.67-20.11-.17-40.24-.16-60.37V748.49c-99.33,54.86-205.3,69.13-313.85,69.2S325.56,803.22,226.9,748.74Z"/>
</svg>